<?xml version="1.0" encoding="UTF-8"?>
<svg xmlns="http://www.w3.org/2000/svg" viewBox="0 0 1180 520" font-family="Arial, Helvetica, sans-serif">
  <defs>
    <marker id="arrow" markerWidth="10" markerHeight="7" refX="9" refY="3.5" orient="auto">
      <polygon points="0 0, 10 3.5, 0 7" fill="#334155"/>
    </marker>
    <marker id="arrow-blue" markerWidth="10" markerHeight="7" refX="9" refY="3.5" orient="auto">
      <polygon points="0 0, 10 3.5, 0 7" fill="#2563eb"/>
    </marker>
    <marker id="arrow-green" markerWidth="10" markerHeight="7" refX="9" refY="3.5" orient="auto">
      <polygon points="0 0, 10 3.5, 0 7" fill="#059669"/>
    </marker>
    <linearGradient id="boxGrad" x1="0%" y1="0%" x2="0%" y2="100%">
      <stop offset="0%" style="stop-color:#f8fafc"/>
      <stop offset="100%" style="stop-color:#e2e8f0"/>
    </linearGradient>
  </defs>

  <!-- Title -->
  <text x="590" y="36" text-anchor="middle" font-size="20" font-weight="bold" fill="#0f172a">
    Flujo de petici?n  Usuario a respuesta en UI
  </text>
  <text x="590" y="58" text-anchor="middle" font-size="13" fill="#64748b">
    Innovatech Solutions ? GET /api/proyectos (v?a BFF) ? POST /api/tareas omite BFF
  </text>

  <!-- INICIO -->
  <rect x="20" y="78" width="100" height="36" rx="6" fill="#dcfce7" stroke="#16a34a" stroke-width="2"/>
  <text x="70" y="101" text-anchor="middle" font-size="13" font-weight="bold" fill="#166534">INICIO</text>

  <!-- Component boxes - row 1 -->
  <g id="components">
    <!-- Usuario -->
    <rect x="140" y="120" width="110" height="52" rx="8" fill="url(#boxGrad)" stroke="#475569" stroke-width="1.5"/>
    <text x="195" y="143" text-anchor="middle" font-size="13" font-weight="bold" fill="#1e293b">Usuario</text>
    <text x="195" y="160" text-anchor="middle" font-size="11" fill="#64748b">Acci?n en UI</text>

    <!-- Navegador -->
    <rect x="280" y="120" width="110" height="52" rx="8" fill="url(#boxGrad)" stroke="#475569" stroke-width="1.5"/>
    <text x="335" y="143" text-anchor="middle" font-size="13" font-weight="bold" fill="#1e293b">Navegador</text>
    <text x="335" y="160" text-anchor="middle" font-size="11" fill="#64748b">DOM / fetch</text>

    <!-- Frontend -->
    <rect x="420" y="120" width="110" height="52" rx="8" fill="#dbeafe" stroke="#2563eb" stroke-width="1.5"/>
    <text x="475" y="143" text-anchor="middle" font-size="13" font-weight="bold" fill="#1e40af">Frontend</text>
    <text x="475" y="160" text-anchor="middle" font-size="11" fill="#3b82f6">React :5173</text>

    <!-- API Gateway -->
    <rect x="560" y="120" width="120" height="52" rx="8" fill="#fef3c7" stroke="#d97706" stroke-width="1.5"/>
    <text x="620" y="143" text-anchor="middle" font-size="13" font-weight="bold" fill="#92400e">API Gateway</text>
    <text x="620" y="160" text-anchor="middle" font-size="11" fill="#b45309">:8080 + JWT</text>

    <!-- BFF -->
    <rect x="710" y="120" width="110" height="52" rx="8" fill="#ede9fe" stroke="#7c3aed" stroke-width="1.5"/>
    <text x="765" y="143" text-anchor="middle" font-size="13" font-weight="bold" fill="#5b21b6">BFF Gateway</text>
    <text x="765" y="160" text-anchor="middle" font-size="11" fill="#7c3aed">:8081 HTTP</text>

    <!-- MS -->
    <rect x="850" y="120" width="120" height="52" rx="8" fill="#fce7f3" stroke="#db2777" stroke-width="1.5"/>
    <text x="910" y="143" text-anchor="middle" font-size="13" font-weight="bold" fill="#9d174d">Microservicio</text>
    <text x="910" y="160" text-anchor="middle" font-size="11" fill="#be185d">ms-proyectos / tareas</text>

    <!-- PostgreSQL -->
    <rect x="1000" y="120" width="120" height="52" rx="8" fill="#ecfdf5" stroke="#059669" stroke-width="1.5"/>
    <text x="1060" y="143" text-anchor="middle" font-size="13" font-weight="bold" fill="#065f46">PostgreSQL</text>
    <text x="1060" y="160" text-anchor="middle" font-size="11" fill="#10b981">:5432 JDBC</text>
  </g>

  <!-- Keycloak (side) -->
  <rect x="560" y="210" width="120" height="44" rx="8" fill="#fff7ed" stroke="#ea580c" stroke-width="1.5"/>
  <text x="620" y="230" text-anchor="middle" font-size="12" font-weight="bold" fill="#c2410c">Keycloak</text>
  <text x="620" y="246" text-anchor="middle" font-size="10" fill="#ea580c">Validaci?n JWT</text>

  <!-- Eureka (side) -->
  <rect x="710" y="210" width="110" height="44" rx="8" fill="#f1f5f9" stroke="#64748b" stroke-width="1.5"/>
  <text x="765" y="230" text-anchor="middle" font-size="12" font-weight="bold" fill="#334155">Eureka</text>
  <text x="765" y="246" text-anchor="middle" font-size="10" fill="#64748b">lb:// discovery</text>

  <!-- Forward arrows (ida) - row -->
  <line x1="70" y1="96" x2="140" y2="130" stroke="#16a34a" stroke-width="2" marker-end="url(#arrow-green)"/>

  <line x1="250" y1="146" x2="280" y2="146" stroke="#334155" stroke-width="2" marker-end="url(#arrow)"/>
  <circle cx="265" cy="146" r="11" fill="#2563eb"/>
  <text x="265" y="150" text-anchor="middle" font-size="10" font-weight="bold" fill="#fff">1</text>

  <line x1="390" y1="146" x2="420" y2="146" stroke="#334155" stroke-width="2" marker-end="url(#arrow)"/>
  <circle cx="405" cy="146" r="11" fill="#2563eb"/>
  <text x="405" y="150" text-anchor="middle" font-size="10" font-weight="bold" fill="#fff">2</text>

  <line x1="530" y1="146" x2="560" y2="146" stroke="#334155" stroke-width="2" marker-end="url(#arrow)"/>
  <circle cx="545" cy="146" r="11" fill="#2563eb"/>
  <text x="545" y="150" text-anchor="middle" font-size="10" font-weight="bold" fill="#fff">3</text>
  <text x="545" y="132" text-anchor="middle" font-size="9" fill="#2563eb">HTTP + JWT</text>

  <line x1="680" y1="146" x2="710" y2="146" stroke="#334155" stroke-width="2" marker-end="url(#arrow)"/>
  <circle cx="695" cy="146" r="11" fill="#2563eb"/>
  <text x="695" y="150" text-anchor="middle" font-size="10" font-weight="bold" fill="#fff">5</text>
  <text x="695" y="132" text-anchor="middle" font-size="9" fill="#2563eb">HTTP</text>

  <line x1="820" y1="146" x2="850" y2="146" stroke="#334155" stroke-width="2" marker-end="url(#arrow)"/>
  <circle cx="835" cy="146" r="11" fill="#2563eb"/>
  <text x="835" y="150" text-anchor="middle" font-size="10" font-weight="bold" fill="#fff">6</text>
  <text x="835" y="132" text-anchor="middle" font-size="9" fill="#2563eb">HTTP</text>

  <line x1="970" y1="146" x2="1000" y2="146" stroke="#334155" stroke-width="2" marker-end="url(#arrow)"/>
  <circle cx="985" cy="146" r="11" fill="#2563eb"/>
  <text x="985" y="150" text-anchor="middle" font-size="10" font-weight="bold" fill="#fff">7</text>
  <text x="985" y="132" text-anchor="middle" font-size="9" fill="#2563eb">JDBC</text>

  <!-- Gateway to Keycloak -->
  <line x1="620" y1="172" x2="620" y2="210" stroke="#ea580c" stroke-width="1.5" stroke-dasharray="4,3" marker-end="url(#arrow)"/>
  <circle cx="638" cy="192" r="10" fill="#ea580c"/>
  <text x="638" y="196" text-anchor="middle" font-size="9" font-weight="bold" fill="#fff">4</text>
  <text x="655" y="192" font-size="9" fill="#ea580c">JWT</text>

  <!-- Gateway/BFF to Eureka -->
  <line x1="765" y1="172" x2="765" y2="210" stroke="#64748b" stroke-width="1.5" stroke-dasharray="4,3" marker-end="url(#arrow)"/>
  <text x="785" y="192" font-size="9" fill="#64748b">Eureka</text>

  <!-- Return path label -->
  <rect x="20" y="290" width="1140" height="2" fill="#e2e8f0"/>

  <text x="590" y="318" text-anchor="middle" font-size="14" font-weight="bold" fill="#059669">? Vuelta: JSON por la misma cadena (pasos 8 ? 11) ?</text>

  <!-- Return arrows (vuelta) - bottom row -->
  <line x1="1060" y1="340" x2="910" y2="340" stroke="#059669" stroke-width="2" marker-end="url(#arrow-green)"/>
  <circle cx="985" cy="340" r="11" fill="#059669"/>
  <text x="985" y="344" text-anchor="middle" font-size="10" font-weight="bold" fill="#fff">8</text>
  <text x="985" y="328" text-anchor="middle" font-size="9" fill="#059669">Filas / ID</text>

  <line x1="850" y1="340" x2="765" y2="340" stroke="#059669" stroke-width="2" marker-end="url(#arrow-green)"/>
  <circle cx="808" cy="340" r="11" fill="#059669"/>
  <text x="808" y="344" text-anchor="middle" font-size="10" font-weight="bold" fill="#fff">9</text>
  <text x="808" y="328" text-anchor="middle" font-size="9" fill="#059669">JSON</text>

  <line x1="710" y1="340" x2="620" y2="340" stroke="#059669" stroke-width="2" marker-end="url(#arrow-green)"/>
  <circle cx="665" cy="340" r="11" fill="#059669"/>
  <text x="665" y="344" text-anchor="middle" font-size="10" font-weight="bold" fill="#fff">10</text>

  <line x1="560" y1="340" x2="475" y2="340" stroke="#059669" stroke-width="2" marker-end="url(#arrow-green)"/>
  <circle cx="518" cy="340" r="11" fill="#059669"/>
  <text x="518" y="344" text-anchor="middle" font-size="10" font-weight="bold" fill="#fff">10</text>
  <text x="518" y="328" text-anchor="middle" font-size="9" fill="#059669">200 / 201 JSON</text>

  <line x1="420" y1="340" x2="335" y2="340" stroke="#059669" stroke-width="2" marker-end="url(#arrow-green)"/>
  <circle cx="378" cy="340" r="11" fill="#059669"/>
  <text x="378" y="344" text-anchor="middle" font-size="10" font-weight="bold" fill="#fff">11</text>
  <text x="378" y="328" text-anchor="middle" font-size="9" fill="#059669">setState</text>

  <line x1="280" y1="340" x2="195" y2="340" stroke="#059669" stroke-width="2" marker-end="url(#arrow-green)"/>
  <text x="238" y="328" text-anchor="middle" font-size="9" fill="#059669">Render UI</text>

  <!-- FIN -->
  <rect x="60" y="370" width="100" height="36" rx="6" fill="#dcfce7" stroke="#16a34a" stroke-width="2"/>
  <text x="110" y="393" text-anchor="middle" font-size="13" font-weight="bold" fill="#166534">FIN</text>
  <line x1="195" y1="340" x2="110" y2="370" stroke="#16a34a" stroke-width="2" marker-end="url(#arrow-green)"/>

  <!-- Note: POST tareas bypass -->
  <rect x="710" y="400" width="410" height="56" rx="8" fill="#fffbeb" stroke="#f59e0b" stroke-width="1.5"/>
  <text x="915" y="422" text-anchor="middle" font-size="12" font-weight="bold" fill="#b45309">POST /api/tareas  atajo directo</text>
  <text x="915" y="442" text-anchor="middle" font-size="11" fill="#92400e">Gateway ? ms-tareas (sin BFF). Pasos 5-6 omitidos.</text>

  <!-- Legend -->
  <rect x="20" y="470" width="1140" height="36" rx="6" fill="#f8fafc" stroke="#cbd5e1"/>
  <text x="40" y="493" font-size="11" fill="#475569">
    Leyenda:  Ida (azul) ?  Vuelta (verde) ?  JWT / Eureka (punteado) ? Fuente: DIAGRAMA_FLUJO_PETICION.md
  </text>
</svg>
